<?xml version="1.0" encoding="utf-8"?>

<!-- Generator: Adobe Illustrator 28.2.0, SVG Export Plug-In . SVG Version: 6.00 Build 0)  -->

<svg version="1.1" id="Layer_1" xmlns="http://www.w3.org/2000/svg" xmlns:xlink="http://www.w3.org/1999/xlink" x="0px" y="0px"

	 viewBox="0 0 490.2070618 174.8410645" enable-background="new 0 0 490.2070618 174.8410645" xml:space="preserve">

<g>

	<path fill="#FFFFFF" d="M117.4066391,69.9464035c4.1676025,0,7.57798,0.8469009,10.2282791,2.5392761

		c2.6474609,1.6938019,4.4608154,3.7477112,5.4315491,6.1617355h0.3757629V50.947361h8.0420074v73.6006317h-7.6178436v-8.5117035

		h-0.4241638c-0.6889038,2.4140244-2.4766388,4.5689926-5.3603821,6.4663315

		c-2.8865738,1.8973465-6.5389175,2.8453064-10.9570389,2.8453064c-6.2087021,0-11.2189407-2.0069427-15.0278549-6.0208282

		c-3.8089142-4.0124512-5.7133789-9.3884964-5.7133789-16.1309586v-11.144928

		c0-6.5844727,1.9044647-11.9149628,5.7133789-15.9900513C105.9058685,71.9846573,111.0100479,69.9464035,117.4066391,69.9464035z

		 M118.4883957,77.0945282c-4.3583374,0-7.8000259,1.4987946-10.3250732,4.4921265

		c-2.5221939,2.9947586-3.7861404,7.1723251-3.7861404,12.5327072v7.055603c0,5.3917007,1.2952576,9.5934677,3.8800812,12.6038742

		c2.587677,3.0089874,6.0976868,4.5149078,10.5357285,4.5149078c4.4351959,0,7.9879074-1.4504089,10.6524429-4.3512192

		c2.6645355-2.8993912,3.9967957-6.8421021,3.9967957-11.8281403V92.0512161c0-4.2957077-1.4034271-7.8626556-4.2074585-10.6994171

		C126.4279099,78.5136185,122.8438797,77.0945282,118.4883957,77.0945282z"/>

	<path fill="#FFFFFF" d="M171.3179016,69.9464035c6.7097321,0,12.1811371,2.0852203,16.4142151,6.2556763

		c4.233078,4.1690292,6.3481903,9.90802,6.3481903,17.2127151v8.5117111c0,7.3061142-2.1321869,13.0508041-6.3937378,17.2369156

		c-4.264389,4.1846848-9.7215576,6.27845-16.3686676,6.27845c-6.8036652,0-12.3063812-2.0766907-16.5053101-6.2314835

		c-4.201767-4.1547928-6.3026428-9.9151382-6.3026428-17.2838821v-8.5117111c0-7.054184,2.1464233-12.729126,6.4421387-17.0248337

		C159.2477875,72.0942535,164.7021179,69.9464035,171.3179016,69.9464035z M156.5035553,94.30867v6.7239609

		c0,3.5441742,0.5892639,6.6015549,1.7649689,9.170723c1.1756897,2.5720139,2.8751831,4.5618744,5.1013336,5.9738541

		c2.2261353,1.410553,4.8764343,2.116539,7.9480438,2.116539c4.6088562,0,8.2071075-1.552887,10.7947845-4.6572418

		c2.587677-3.1029282,3.8800812-7.3046951,3.8800812-12.6038742V94.30867c0-5.2365494-1.3265686-9.4141159-3.9740295-12.5341263

		c-2.6502991-3.1200104-6.2086945-4.6800156-10.6752167-4.6800156c-4.4693604,0-8.0590668,1.5756607-10.7720032,4.7269821

		C157.8614349,84.9728394,156.5035553,89.1347504,156.5035553,94.30867z"/>

	<path fill="#FFFFFF" d="M206.8222504,70.7933044V57.2955589h8.0419922v13.4977455h12.229538v6.8662949h-12.229538v32.3088989

		c0,2.227562,0.2761383,3.9270554,0.8227081,5.1027527c0.5494232,1.1756973,1.4432831,1.9912872,2.6816101,2.4453354

		c1.238327,0.4554825,3.0346069,0.6817932,5.3860016,0.6817932c1.4404449,0,2.821106-0.061203,4.1391449-0.1878815v6.6314392

		c-1.2554016,0.2505112-3.3249817,0.3757706-6.2087097,0.3757706c-3.1057739,0-5.6365051-0.2903671-7.5950623-0.8696747

		c-1.9613953-0.5793076-3.4644623-1.5514679-4.5149078-2.9150467c-1.0504303-1.3650055-1.7734985-2.9477844-2.1634979-4.7511826

		c-0.3928528-1.8019791-0.5892792-4.0978622-0.5892792-6.8890686v-31.933136h-8.2298737v-6.8662949H206.8222504z"/>

</g>

<g>

	<path fill="#FFFFFF" d="M239.5795135,84.3736038c0-5.29776,1.8731384-9.3116379,5.6194305-12.0388031

		c3.7462921-2.7285843,8.394989-4.0921631,13.946106-4.0921631c2.7897949,0,5.3603821,0.3771896,7.7117615,1.1287231

		c2.3514099,0.7529602,4.3412781,1.7806244,5.9724426,3.0801544c1.6311646,1.3023758,2.883728,2.862381,3.7633667,4.6800156

		c0.8768005,1.8190613,1.3151855,3.8089218,1.3151855,5.9724274h-7.5238953

		c-0.1252441-1.3792343-0.5949707-2.6716461-1.4119568-3.8800812c-0.8141785-1.2055893-2.1151428-2.2332535-3.9028625-3.0801544

		c-1.7877502-0.8469009-3.8886414-1.2696381-6.3026733-1.2696381c-2.2261353,0-4.1846771,0.3287964-5.878479,0.9878082

		c-1.6909485,0.6575928-3.0317535,1.6539459-4.0195618,2.9862137c-0.9878235,1.3322678-1.4831543,2.8766174-1.4831543,4.633049

		c0,1.2539825,0.2590637,2.3357315,0.7771606,3.2438354c0.5180969,0.9109573,1.1045227,1.6226349,1.7621155,2.1407394

		c0.6604462,0.5166779,1.6226349,1.0105896,2.8951263,1.48172c1.2696381,0.4697113,2.3115387,0.7828522,3.1257019,0.9394226

		c0.8141632,0.1579895,2.0069427,0.3928452,3.5754852,0.705986c0.1252441,0,0.2419739,0.0156555,0.3529968,0.0469666

		c0.1081848,0.0313187,0.224884,0.0469742,0.3529968,0.0469742c0.122406,0,0.2505188,0.0469742,0.3757629,0.1409149

		c1.8788452,0.3145599,3.5100098,0.634819,4.890686,0.9650345c1.3778076,0.3287964,2.8353271,0.7515411,4.3725586,1.2696457

		c1.5372314,0.5166779,2.821106,1.1358414,3.8572998,1.8574829c1.0333557,0.7216492,2.0126343,1.5827789,2.9378357,2.5862503

		c0.9251709,1.0034714,1.5998535,2.1948242,2.0240173,3.5740662c0.4241638,1.380661,0.6348267,2.9164658,0.6348267,4.6088409

		c0,5.2052383-1.9272461,9.2817459-5.7845459,12.2281036c-3.8573303,2.9477844-8.9529724,4.4209671-15.2840576,4.4209671

		c-5.8642731,0-10.6069031-1.2938385-14.2279358-3.8800888c-3.621048-2.5862427-5.4315643-6.2314758-5.4315643-10.9342651h7.8996735

		c0.7856903,5.3618088,4.8280334,8.0419998,12.1355896,8.0419998c2.883728,0,5.3062744-0.4070816,7.2648315-1.2226715

		s3.361969-1.8574905,4.2102966-3.1271286c0.8454895-1.2710571,1.2696533-2.7826691,1.2696533-4.5391006

		c0-1.1913528-0.244812-2.2417984-0.7287598-3.1513214c-0.4867859-0.9081039-1.0760803-1.6368713-1.7649841-2.1862869

		c-0.6889038-0.5479965-1.7165527-1.0732117-3.0801392-1.5756607c-1.3635864-0.5010223-2.556366-0.8625565-3.5726624-1.0817566

		c-1.019104-0.2192001-2.4709473-0.532341-4.3526306-0.9408417c-2.4766541-0.5010223-4.4351959-0.9323044-5.878479-1.2924118

		c-1.4404449-0.3601151-3.0716248-0.9337234-4.8906708-1.7165756c-1.8190613-0.7842712-3.2054138-1.6539459-4.161911-2.6104507

		c-0.9565125-0.9564972-1.7564392-2.1948242-2.3969421-3.7149734

		C239.9011841,88.284996,239.5795135,86.4744797,239.5795135,84.3736038z"/>

	<path fill="#FFFFFF" d="M289.5822144,122.8442307V49.2435989h8.1359558v73.6006317H289.5822144z"/>

	<path fill="#FFFFFF" d="M321.4769287,123.7381058c-2.5392761,0-4.9049072-0.4085083-7.0997314-1.2226715

		c-2.1948242-0.8155823-4.0451965-1.9286499-5.5511169-3.3392029c-1.5030823-1.410553-2.6958618-3.1427841-3.5726318-5.196701

		c-0.8796387-2.0539093-1.3180542-4.3184738-1.3180542-6.7965546c0-3.1342392,0.7059937-5.8628235,2.117981-8.1829071

		c1.4091187-2.320076,3.5498657-4.1462555,6.4193726-5.4785233c2.8666382-1.3322601,6.2940979-1.9983978,10.2738037-1.9983978

		h14.3930359v-5.5027161c0-3.5740662-1.0447388-6.2243652-3.12854-7.9480591

		c-2.0838013-1.7236862-5.0244751-2.5862427-8.8163147-2.5862427c-6.2086792,0-10.0033875,2.14785-11.3811951,6.442131h-7.8085632

		c0.438385-4.5149002,2.374176-7.923851,5.807312-10.2282791c3.4331665-2.3044205,8.0192261-3.4573441,13.7582397-3.4573441

		c5.7987671,0,10.5328674,1.4347458,14.202301,4.3028259c3.6694336,2.8694916,5.5027161,7.3303146,5.5027161,13.3810272v36.9177399

		h-7.854126v-7.2420654h-0.2818298C333.7520142,121.0266037,328.5339661,123.7381058,321.4769287,123.7381058z

		 M323.500946,116.7778625c3.8544617,0,7.0940247-1.1756973,9.7101746-3.527092

		c2.618988-2.3513947,3.9284668-5.2835159,3.9284668-8.7949524v-6.2556763h-14.202301

		c-3.6694336,0-6.3652649,0.8155823-8.0903931,2.4467621c-1.7250977,1.6297455-2.587677,3.7776031-2.587677,6.442131

		c0,3.1356659,1.0988464,5.5340347,3.2936707,7.1965256C317.7477112,115.9466171,320.3951721,116.7778625,323.500946,116.7778625z"

		/>

	<path fill="#FFFFFF" d="M351.8771057,84.3736038c0-5.29776,1.8731384-9.3116379,5.6194153-12.0388031

		c3.7463074-2.7285843,8.394989-4.0921631,13.946106-4.0921631c2.7897949,0,5.3603821,0.3771896,7.711792,1.1287231

		c2.3513794,0.7529602,4.3412476,1.7806244,5.9724121,3.0801544c1.6311646,1.3023758,2.883728,2.862381,3.7633667,4.6800156

		c0.8768005,1.8190613,1.3151855,3.8089218,1.3151855,5.9724274h-7.5238953

		c-0.1252441-1.3792343-0.5949402-2.6716461-1.4119568-3.8800812c-0.8141785-1.2055893-2.1151123-2.2332535-3.9028625-3.0801544

		s-3.8886414-1.2696381-6.3026428-1.2696381c-2.2261353,0-4.1846924,0.3287964-5.8785095,0.9878082

		c-1.6909485,0.6575928-3.0317383,1.6539459-4.0195618,2.9862137s-1.4831543,2.8766174-1.4831543,4.633049

		c0,1.2539825,0.2590637,2.3357315,0.7771606,3.2438354c0.5180969,0.9109573,1.1045227,1.6226349,1.7621155,2.1407394

		c0.6604614,0.5166779,1.6226501,1.0105896,2.8951416,1.48172c1.2696228,0.4697113,2.3115234,0.7828522,3.1257019,0.9394226

		c0.8141479,0.1579895,2.0069275,0.3928452,3.57547,0.705986c0.1252747,0,0.2419739,0.0156555,0.3529968,0.0469666

		c0.1081848,0.0313187,0.224884,0.0469742,0.3529968,0.0469742c0.122406,0,0.2505188,0.0469742,0.3757629,0.1409149

		c1.8788452,0.3145599,3.5100098,0.634819,4.890686,0.9650345c1.3778076,0.3287964,2.8353271,0.7515411,4.3725586,1.2696457

		c1.5372314,0.5166779,2.821106,1.1358414,3.8573303,1.8574829c1.0333557,0.7216492,2.0126343,1.5827789,2.9378052,2.5862503

		s1.5998535,2.1948242,2.0240173,3.5740662c0.4241638,1.380661,0.6348267,2.9164658,0.6348267,4.6088409

		c0,5.2052383-1.9272461,9.2817459-5.7845459,12.2281036c-3.8572998,2.9477844-8.9529419,4.4209671-15.2840576,4.4209671

		c-5.8642578,0-10.6069031-1.2938385-14.2279358-3.8800888c-3.6210327-2.5862427-5.4315491-6.2314758-5.4315491-10.9342651

		h7.8996582c0.7857056,5.3618088,4.8280334,8.0419998,12.1355896,8.0419998c2.883728,0,5.3063049-0.4070816,7.2648315-1.2226715

		c1.9585571-0.8155899,3.3619995-1.8574905,4.2103271-3.1271286c0.845459-1.2710571,1.2696228-2.7826691,1.2696228-4.5391006

		c0-1.1913528-0.244812-2.2417984-0.7287598-3.1513214c-0.4867859-0.9081039-1.0760498-1.6368713-1.7649841-2.1862869

		c-0.6889038-0.5479965-1.7165527-1.0732117-3.0801392-1.5756607c-1.3635864-0.5010223-2.556366-0.8625565-3.5726318-1.0817566

		c-1.0191345-0.2192001-2.4709778-0.532341-4.3526611-0.9408417c-2.4766541-0.5010223-4.4351807-0.9323044-5.878479-1.2924118

		c-1.4404297-0.3601151-3.0716248-0.9337234-4.8906555-1.7165756c-1.8190613-0.7842712-3.2054138-1.6539459-4.1619263-2.6104507

		c-0.9565125-0.9564972-1.7564392-2.1948242-2.3969421-3.7149734

		C352.198761,88.284996,351.8771057,86.4744797,351.8771057,84.3736038z"/>

	<path fill="#FFFFFF" d="M399.9554138,122.8442307V49.2435989h8.0419922v29.7696228h0.3757935

		c0.2504883-0.8469009,0.6034851-1.7009201,1.05896-2.5634766s1.1443787-1.7948608,2.0695801-2.7983322

		c0.9251709-1.0034714,1.9756165-1.8973389,3.1513367-2.680191c1.1756897-0.7842712,2.6872864-1.4347458,4.5376587-1.9528503

		c1.8503723-0.5166855,3.8573303-0.7757339,6.020813-0.7757339c5.4230347,0,9.7955933,1.5286865,13.120575,4.5860748

		c3.322113,3.055954,4.9846191,7.4541473,4.9846191,13.1917191v36.8237991h-8.1359558V88.6066818

		c0-4.26297-1.0903015-7.5552063-3.2680359-9.8767166c-2.180603-2.3186569-5.2294312-3.4801178-9.1465149-3.4801178

		c-4.7027893,0-8.3409119,1.6397171-10.911499,4.9148712c-2.5705872,3.2765808-3.8573303,7.4541473-3.8573303,12.5341263v30.1453857

		H399.9554138z"/>

</g>

<path fill="#FFFFFF" d="M85.2577286,53.0447578l-20.6425629,74.3993225h8.1912689l20.6425705-74.3993225H85.2577286z"/>

<g>

	<path fill="#FFFFFF" d="M46.095295,122.5084381v-0.0828476c0-2.7258835,2.2097664-4.9356537,4.9356499-4.9356537h0.0000114

		c2.7258835,0,4.9356499,2.2097702,4.9356499,4.9356537v0.0828476c0,2.7258835-2.2097664,4.9356461-4.9356499,4.9356461h-0.0000114

		C48.3050613,127.4440842,46.095295,125.2343216,46.095295,122.5084381z"/>

</g>

</svg>

