<?xml version="1.0" encoding="utf-8"?>

<!-- Generator: Adobe Illustrator 28.2.0, SVG Export Plug-In . SVG Version: 6.00 Build 0)  -->

<svg version="1.1" id="Layer_1" xmlns="http://www.w3.org/2000/svg" xmlns:xlink="http://www.w3.org/1999/xlink" x="0px" y="0px"

	 viewBox="0 0 490.2070618 174.8410645" enable-background="new 0 0 490.2070618 174.8410645" xml:space="preserve">

<rect fill="#343434" width="490.2070618" height="174.8410645"/>

<g>

	<g>

		<path fill="#FFFFFF" d="M117.8041534,69.0230942c4.1676025,0,7.57798,0.8469009,10.2282867,2.5392761

			c2.6474457,1.6938019,4.4608154,3.7477188,5.4315491,6.1617355h0.3757629V50.0240555h8.0419922v73.6006393h-7.6178284v-8.5117111

			h-0.4241638c-0.6889038,2.4140244-2.4766541,4.5689926-5.3603821,6.4663391

			c-2.8865814,1.8973389-6.5389252,2.8452988-10.9570465,2.8452988c-6.2087021,0-11.2189407-2.0069427-15.0278549-6.0208206

			c-3.8089142-4.0124588-5.7133789-9.3884964-5.7133789-16.1309662v-11.144928

			c0-6.5844727,1.9044647-11.9149628,5.7133789-15.9900436C106.3033829,71.061348,111.4075623,69.0230942,117.8041534,69.0230942z

			 M118.88591,76.1712189c-4.3583374,0-7.8000259,1.4988022-10.3250732,4.4921341

			c-2.5221939,2.994751-3.7861404,7.1723175-3.7861404,12.5326996v7.0556107c0,5.3916931,1.2952576,9.5934601,3.8800812,12.6038742

			c2.587677,3.0089874,6.0976868,4.5149002,10.5357285,4.5149002c4.4351959,0,7.9879074-1.4504013,10.6524506-4.3512192

			c2.6645203-2.8993835,3.9967957-6.8421021,3.9967957-11.8281403V91.1279068c0-4.2957001-1.4034424-7.862648-4.2074585-10.6994095

			C126.8254242,77.5903091,123.241394,76.1712189,118.88591,76.1712189z"/>

		<path fill="#FFFFFF" d="M171.7154236,69.0230942c6.7097321,0,12.1811371,2.085228,16.4142151,6.2556763

			c4.233078,4.1690292,6.3481903,9.9080276,6.3481903,17.2127228v8.5117035c0,7.3061218-2.1322021,13.0508118-6.3937378,17.2369156

			c-4.2644043,4.1846848-9.7215729,6.27845-16.3686676,6.27845c-6.8036804,0-12.3063965-2.076683-16.5053101-6.2314758

			c-4.201767-4.1547928-6.3026428-9.9151459-6.3026428-17.2838898v-8.5117035c0-7.054184,2.1464233-12.7291336,6.4421234-17.0248337

			C159.6453094,71.1709518,165.0996246,69.0230942,171.7154236,69.0230942z M156.901062,93.3853607v6.7239685

			c0,3.5441666,0.5892792,6.6015472,1.7649689,9.170723c1.175705,2.5720139,2.8751984,4.5618744,5.1013336,5.9738464

			c2.2261353,1.410553,4.8764343,2.116539,7.9480591,2.116539c4.6088409,0,8.2071075-1.552887,10.7947693-4.6572418

			c2.587677-3.1029282,3.8800964-7.3046951,3.8800964-12.6038666v-6.7239685c0-5.2365494-1.3265839-9.4141159-3.9740295-12.5341263

			c-2.6502991-3.1200104-6.2087097-4.6800156-10.6752167-4.6800156c-4.4693604,0-8.059082,1.5756607-10.7720032,4.7269897

			C158.2589569,84.04953,156.901062,88.211441,156.901062,93.3853607z"/>

		<path fill="#FFFFFF" d="M207.2197723,69.8699951V56.3722534h8.0419922v13.4977417h12.2295227v6.8663025h-12.2295227v32.3088989

			c0,2.227562,0.276123,3.9270554,0.8227081,5.1027527c0.549408,1.1756973,1.4432831,1.9912796,2.6816101,2.4453354

			c1.238327,0.4554749,3.0346069,0.6817932,5.3860016,0.6817932c1.4404449,0,2.821106-0.0612106,4.1391296-0.1878891v6.6314468

			c-1.2554016,0.2505112-3.3249664,0.3757706-6.2086945,0.3757706c-3.1057739,0-5.6365204-0.2903671-7.5950623-0.8696747

			c-1.9613953-0.5793152-3.4644623-1.5514679-4.5149078-2.9150467c-1.0504456-1.3650055-1.7735138-2.9477844-2.1635132-4.7511826

			c-0.3928528-1.8019791-0.5892639-4.0978622-0.5892639-6.8890762V76.7362976h-8.2298889v-6.8663025H207.2197723z"/>

	</g>

	<g>

		<path fill="#FFFFFF" d="M239.9770203,83.4502945c0-5.2977524,1.8731537-9.3116379,5.6194305-12.0387955

			c3.7462921-2.7285843,8.3950043-4.0921707,13.9461212-4.0921707c2.7897644,0,5.3603821,0.3771896,7.7117615,1.1287308

			c2.3514099,0.7529602,4.3412476,1.7806244,5.9724426,3.0801544c1.6311646,1.3023758,2.883728,2.862381,3.7633667,4.6800156

			c0.87677,1.8190536,1.3151855,3.8089142,1.3151855,5.9724274h-7.5238953

			c-0.1252747-1.3792419-0.5949707-2.6716537-1.4119873-3.8800888c-0.8141479-1.2055817-2.1151123-2.2332535-3.9028625-3.0801544

			c-1.7877197-0.8469009-3.8886108-1.2696381-6.3026428-1.2696381c-2.2261353,0-4.1846771,0.3287964-5.878479,0.9878159

			c-1.6909485,0.6575928-3.0317688,1.6539459-4.019577,2.9862137s-1.483139,2.8766098-1.483139,4.6330414

			c0,1.2539825,0.2590485,2.3357391,0.7771454,3.2438431c0.5181122,0.9109497,1.104538,1.6226349,1.7621307,2.1407394

			c0.6604462,0.5166779,1.6226349,1.010582,2.8951111,1.48172c1.2696533,0.4697037,2.311554,0.7828445,3.1257019,0.939415

			c0.8141785,0.1579971,2.006958,0.3928528,3.5755005,0.705986c0.1252441,0,0.2419739,0.0156631,0.3529968,0.0469742

			c0.1081543,0.031311,0.224884,0.0469742,0.3529968,0.0469742c0.122406,0,0.2504883,0.0469666,0.3757629,0.1409073

			c1.8788452,0.3145676,3.5100098,0.634819,4.8906555,0.9650421c1.3778381,0.3287964,2.8353577,0.7515335,4.3725891,1.2696381

			c1.5372314,0.5166779,2.821106,1.1358414,3.8572998,1.8574905c1.0333557,0.7216415,2.0126343,1.5827789,2.9378357,2.5862503

			c0.9251709,1.0034637,1.5998535,2.1948242,2.0240173,3.5740585c0.4241638,1.380661,0.6347961,2.9164734,0.6347961,4.6088486

			c0,5.2052307-1.9272156,9.2817459-5.7845459,12.2281036c-3.8572998,2.9477844-8.9529419,4.4209595-15.2840576,4.4209595

			c-5.8642426,0-10.6068878-1.2938309-14.2279205-3.8800812s-5.4315491-6.2314835-5.4315491-10.9342728h7.8996582

			c0.7856903,5.3618088,4.8280487,8.0419998,12.1355743,8.0419998c2.8837585,0,5.3063049-0.4070816,7.2648621-1.2226715

			c1.9585266-0.8155823,3.361969-1.8574829,4.2102966-3.127121c0.8454895-1.2710648,1.2696533-2.7826767,1.2696533-4.5391006

			c0-1.1913605-0.2448425-2.2417984-0.7287903-3.151329c-0.4867859-0.9081039-1.0760498-1.6368637-1.7649536-2.1862793

			c-0.6889038-0.5479965-1.7165833-1.0732193-3.0801697-1.5756683c-1.3635559-0.5010223-2.5563354-0.8625565-3.5726318-1.081749

			c-1.0191345-0.2192001-2.4709473-0.532341-4.3526306-0.9408493c-2.4766541-0.5010223-4.4351959-0.9322968-5.8784943-1.2924118

			c-1.4404449-0.3601074-3.0716095-0.9337234-4.8906708-1.7165756c-1.8190613-0.7842712-3.2054138-1.6539459-4.161911-2.6104431

			s-1.756424-2.1948242-2.3969421-3.7149734C240.2987061,87.3616943,239.9770203,85.551178,239.9770203,83.4502945z"/>

		<path fill="#FFFFFF" d="M289.9797363,121.920929V48.3202934h8.1359558v73.6006317H289.9797363z"/>

		<path fill="#FFFFFF" d="M321.8744507,122.8147964c-2.5392761,0-4.9049072-0.4085007-7.0997314-1.2226639

			c-2.1948242-0.8155899-4.0451965-1.9286575-5.5511169-3.3392105c-1.5030823-1.410553-2.6958618-3.1427841-3.5726318-5.1966934

			c-0.8796387-2.0539093-1.3180542-4.3184814-1.3180542-6.7965546c0-3.1342468,0.7059937-5.8628311,2.117981-8.1829071

			c1.4091187-2.3200836,3.5498657-4.1462555,6.419342-5.4785233c2.8666687-1.3322678,6.2941284-1.9983978,10.2738342-1.9983978

			h14.3930359v-5.5027237c0-3.5740585-1.0447388-6.2243576-3.12854-7.9480515s-5.0244751-2.5862503-8.8163147-2.5862503

			c-6.2087097,0-10.0033875,2.1478577-11.3811951,6.4421387h-7.8085632c0.438385-4.5149078,2.374176-7.9238586,5.807312-10.2282791

			c3.433136-2.3044281,8.0192261-3.4573517,13.7582092-3.4573517c5.7987976,0,10.5328979,1.4347534,14.2023315,4.3028259

			c3.6694031,2.8694992,5.5027161,7.3303146,5.5027161,13.3810272v36.9177475h-7.854126v-7.2420654h-0.2818298

			C334.1495056,120.1032944,328.9314575,122.8147964,321.8744507,122.8147964z M323.898468,115.8545609

			c3.8544617,0,7.0940247-1.1756973,9.7101746-3.527092c2.618988-2.3513947,3.9284668-5.2835236,3.9284668-8.79496v-6.2556763

			h-14.202301c-3.6694336,0-6.3652649,0.8155899-8.0903931,2.4467621c-1.7250977,1.6297531-2.587677,3.7776031-2.587677,6.4421387

			c0,3.1356659,1.0988464,5.5340347,3.2936707,7.1965179C318.1452332,115.0233154,320.7926941,115.8545609,323.898468,115.8545609z"

			/>

		<path fill="#FFFFFF" d="M352.2745972,83.4502945c0-5.2977524,1.8731689-9.3116379,5.6194458-12.0387955

			c3.7462769-2.7285843,8.394989-4.0921707,13.946106-4.0921707c2.7897949,0,5.3603821,0.3771896,7.7117615,1.1287308

			c2.3514099,0.7529602,4.3412781,1.7806244,5.9724426,3.0801544c1.6311646,1.3023758,2.883728,2.862381,3.7633667,4.6800156

			c0.8768005,1.8190536,1.3151855,3.8089142,1.3151855,5.9724274H383.07901

			c-0.1252441-1.3792419-0.5949707-2.6716537-1.4119568-3.8800888c-0.8141785-1.2055817-2.1151428-2.2332535-3.9028625-3.0801544

			c-1.7877502-0.8469009-3.8886414-1.2696381-6.3026733-1.2696381c-2.2261353,0-4.1846619,0.3287964-5.878479,0.9878159

			c-1.6909485,0.6575928-3.0317688,1.6539459-4.0195618,2.9862137c-0.9878235,1.3322678-1.4831543,2.8766098-1.4831543,4.6330414

			c0,1.2539825,0.2590637,2.3357391,0.7771606,3.2438431c0.5180969,0.9109497,1.1045227,1.6226349,1.7621155,2.1407394

			c0.6604614,0.5166779,1.6226501,1.010582,2.8951111,1.48172c1.2696533,0.4697037,2.311554,0.7828445,3.1257324,0.939415

			c0.8141479,0.1579971,2.0069275,0.3928528,3.57547,0.705986c0.1252441,0,0.2419739,0.0156631,0.3529968,0.0469742

			c0.1081848,0.031311,0.224884,0.0469742,0.3529968,0.0469742c0.122406,0,0.2505188,0.0469666,0.3757629,0.1409073

			c1.8788452,0.3145676,3.5100098,0.634819,4.890686,0.9650421c1.3778076,0.3287964,2.8353271,0.7515335,4.3725586,1.2696381

			c1.5372314,0.5166779,2.821106,1.1358414,3.8572998,1.8574905c1.0333557,0.7216415,2.0126343,1.5827789,2.9378357,2.5862503

			c0.9251709,1.0034637,1.5998535,2.1948242,2.0240173,3.5740585c0.4241638,1.380661,0.6348267,2.9164734,0.6348267,4.6088486

			c0,5.2052307-1.9272461,9.2817459-5.7845459,12.2281036c-3.8573303,2.9477844-8.9529419,4.4209595-15.2840576,4.4209595

			c-5.8642578,0-10.6069031-1.2938309-14.2279358-3.8800812s-5.4315491-6.2314835-5.4315491-10.9342728h7.8996582

			c0.785675,5.3618088,4.8280334,8.0419998,12.1355896,8.0419998c2.883728,0,5.3062744-0.4070816,7.2648315-1.2226715

			c1.9585571-0.8155823,3.361969-1.8574829,4.2102966-3.127121c0.8454895-1.2710648,1.2696533-2.7826767,1.2696533-4.5391006

			c0-1.1913605-0.244812-2.2417984-0.7287598-3.151329c-0.4867859-0.9081039-1.0760803-1.6368637-1.7649841-2.1862793

			c-0.6889038-0.5479965-1.7165527-1.0732193-3.0801392-1.5756683c-1.3635864-0.5010223-2.556366-0.8625565-3.5726624-1.081749

			c-1.019104-0.2192001-2.4709473-0.532341-4.3526306-0.9408493c-2.4766541-0.5010223-4.4351807-0.9322968-5.878479-1.2924118

			c-1.4404602-0.3601074-3.0716248-0.9337234-4.890686-1.7165756c-1.8190613-0.7842712-3.2054138-1.6539459-4.1618958-2.6104431

			c-0.9565125-0.9564972-1.7564392-2.1948242-2.3969421-3.7149734

			C352.596283,87.3616943,352.2745972,85.551178,352.2745972,83.4502945z"/>

		<path fill="#FFFFFF" d="M400.3529358,121.920929V48.3202934h8.0419922v29.769619h0.3757629

			c0.2505188-0.8469009,0.6035156-1.7009201,1.0589905-2.5634766s1.1443787-1.7948608,2.0695801-2.7983322

			c0.9251709-1.0034637,1.9756165-1.8973389,3.1513062-2.680191c1.1757202-0.7842712,2.6873169-1.4347458,4.5376892-1.9528503

			c1.8503723-0.5166779,3.8572998-0.7757339,6.020813-0.7757339c5.4230042,0,9.7955933,1.5286942,13.120575,4.5860748

			c3.322113,3.0559616,4.9845886,7.4541473,4.9845886,13.1917191v36.8238068h-8.1359253V87.6833725

			c0-4.26297-1.0903015-7.5552063-3.2680359-9.876709c-2.180603-2.3186569-5.2294312-3.4801178-9.1465454-3.4801178

			c-4.7027893,0-8.3408813,1.6397095-10.9114685,4.9148636c-2.5706177,3.2765808-3.8573303,7.454155-3.8573303,12.5341339

			v30.1453857H400.3529358z"/>

	</g>

	<path fill="#14C7B8" d="M85.6552429,52.1214523l-20.6425629,74.3993301h8.1912689l20.6425705-74.3993301H85.6552429z"/>

	<g>

		<path fill="#14C7B8" d="M46.4928093,121.5851288v-0.0828476c0-2.7258835,2.2097664-4.9356461,4.9356499-4.9356461h0.0000114

			c2.7258835,0,4.9356499,2.2097626,4.9356499,4.9356461v0.0828476c0,2.7258835-2.2097664,4.9356537-4.9356499,4.9356537h-0.0000114

			C48.7025757,126.5207825,46.4928093,124.3110123,46.4928093,121.5851288z"/>

	</g>

</g>

</svg>

